<svg width="48" height="22" viewBox="0 0 48 22" fill="none" xmlns="http://www.w3.org/2000/svg">
<path d="M7.84534 17C7.96237 17.2027 8.13068 17.371 8.33337 17.488C8.53605 17.605 8.76597 17.6666 9 17.6666C9.23404 17.6666 9.46396 17.605 9.66664 17.488C9.86933 17.371 10.0376 17.2027 10.1547 17" stroke="#9498A2" stroke-width="1.33333" stroke-linecap="round" stroke-linejoin="round"/>
<path d="M3.17467 13.2174C3.08758 13.3128 3.0301 13.4315 3.00924 13.5591C2.98837 13.6866 3.00501 13.8174 3.05714 13.9356C3.10926 14.0539 3.19462 14.1544 3.30284 14.225C3.41105 14.2956 3.53745 14.3333 3.66667 14.3334H14.3333C14.4625 14.3334 14.589 14.2959 14.6972 14.2254C14.8055 14.155 14.891 14.0545 14.9433 13.9364C14.9955 13.8182 15.0123 13.6874 14.9916 13.5599C14.9709 13.4324 14.9136 13.3136 14.8267 13.218C13.94 12.304 13 11.3327 13 8.33337C13 7.27251 12.5786 6.25509 11.8284 5.50495C11.0783 4.7548 10.0609 4.33337 9 4.33337C7.93914 4.33337 6.92172 4.7548 6.17157 5.50495C5.42143 6.25509 5 7.27251 5 8.33337C5 11.3327 4.05933 12.304 3.17467 13.2174Z" stroke="#9498A2" stroke-width="1.33333" stroke-linecap="round" stroke-linejoin="round"/>
<rect x="26.5" y="0.5" width="21" height="21" stroke="#27292D"/>
<path d="M36 13.5L38.5 11L36 8.5" stroke="#9498A2" stroke-linecap="round" stroke-linejoin="round"/>
<path d="M38.5 11H32.5" stroke="#9498A2" stroke-linecap="round" stroke-linejoin="round"/>
<path d="M38.5 6.5H40.5C40.7652 6.5 41.0196 6.60536 41.2071 6.79289C41.3946 6.98043 41.5 7.23478 41.5 7.5V14.5C41.5 14.7652 41.3946 15.0196 41.2071 15.2071C41.0196 15.3946 40.7652 15.5 40.5 15.5H38.5" stroke="#9498A2" stroke-linecap="round" stroke-linejoin="round"/>
</svg>
