<svg width="32" height="34" viewBox="0 0 32 34" fill="none" xmlns="http://www.w3.org/2000/svg">
<path d="M19.3333 10C19.6869 10 20.026 10.1405 20.2761 10.3905C20.5261 10.6406 20.6666 10.9797 20.6666 11.3333V21.3333C20.6665 21.4501 20.6359 21.5648 20.5776 21.6659C20.5193 21.7671 20.4355 21.8512 20.3345 21.9098C20.2335 21.9683 20.1189 21.9994 20.0022 21.9998C19.8854 22.0002 19.7706 21.9699 19.6693 21.912L16.6613 20.1933C16.4598 20.0783 16.2319 20.0178 15.9999 20.0178C15.768 20.0178 15.54 20.0783 15.3386 20.1933L12.3306 21.912C12.2292 21.9699 12.1144 22.0002 11.9977 21.9998C11.8809 21.9994 11.7663 21.9683 11.6653 21.9098C11.5644 21.8512 11.4805 21.7671 11.4223 21.6659C11.364 21.5648 11.3333 21.4501 11.3333 21.3333V11.3333C11.3333 10.9797 11.4737 10.6406 11.7238 10.3905C11.9738 10.1405 12.313 10 12.6666 10H19.3333Z" stroke="#9498A2" stroke-width="1.33333" stroke-linecap="round" stroke-linejoin="round"/>
</svg>
