<svg width="24" height="24" viewBox="0 0 24 24" fill="none" xmlns="http://www.w3.org/2000/svg">
<path d="M19 3C19.5304 3 20.0391 3.21071 20.4142 3.58579C20.7893 3.96086 21 4.46957 21 5V20C21 20.1768 20.9482 20.3497 20.8506 20.4972C20.753 20.6448 20.6139 20.7603 20.4504 20.8293C20.2868 20.8983 20.1062 20.9178 19.9315 20.8856C19.7568 20.8534 19.5959 20.7708 19.4679 20.648L12.9919 15.29C12.7397 15.0675 12.4179 14.9434 12.0839 14.9434C11.7499 14.9434 11.4281 15.0675 11.1759 15.29L4.69988 20.648C4.57188 20.7708 4.41099 20.8534 4.23628 20.8856C4.06157 20.9178 3.88098 20.8983 3.71744 20.8293C3.5539 20.7603 3.41479 20.6448 3.31719 20.4972C3.21959 20.3497 3.16788 20.1768 3.16788 20V5C3.16788 4.46957 3.37859 3.96086 3.75366 3.58579C4.12874 3.21071 4.63745 3 5.16788 3H19Z" stroke="#9498A2" stroke-width="2" stroke-linecap="round" stroke-linejoin="round"/>
</svg>
